PathFileType	4	(X/Y/Z)	/Users/itak/Documents/Research/Walk-IL/dataset/trc/00090_00006.trc
DataRate	CameraRate	NumFrames	NumMarkers	Units	OrigDataRate	OrigDataStartFrame	OrigNumFrames
100.000000	100.000000	4	56	mm	100.000000	0	513
Frame#	Time	RPSI			LPSI			L3			STRN			T10			C7			CLAV			RBAK			LBAK			LSHO			LUPA			LAEL			LAOL			LWTS			LWPS			LFRA			LIFD			LHPS			LHTS			RSHO			RUPA			RAEL			RAOL			RWTS			RWPS			RFRA			RIFD			RHPS			RBHD			LFHD			RFHD			LBHD			LHIP			RHIP			RASI			LASI			LKNE			LTHI			LANK			LTIP			LTOE			LMT1			LMT5			LHEE			RKNE			RTHI			RANK			RTIP			RTOE			RMT1			RMT5			RHEE			RHTS			*53			*54			*55			
		X1	Y1	Z1	X2	Y2	Z2	X3	Y3	Z3	X4	Y4	Z4	X5	Y5	Z5	X6	Y6	Z6	X7	Y7	Z7	X8	Y8	Z8	X9	Y9	Z9	X10	Y10	Z10	X11	Y11	Z11	X12	Y12	Z12	X13	Y13	Z13	X14	Y14	Z14	X15	Y15	Z15	X16	Y16	Z16	X17	Y17	Z17	X18	Y18	Z18	X19	Y19	Z19	X20	Y20	Z20	X21	Y21	Z21	X22	Y22	Z22	X23	Y23	Z23	X24	Y24	Z24	X25	Y25	Z25	X26	Y26	Z26	X27	Y27	Z27	X28	Y28	Z28	X29	Y29	Z29	X30	Y30	Z30	X31	Y31	Z31	X32	Y32	Z32	X33	Y33	Z33	X34	Y34	Z34	X35	Y35	Z35	X36	Y36	Z36	X37	Y37	Z37	X38	Y38	Z38	X39	Y39	Z39	X40	Y40	Z40	X41	Y41	Z41	X42	Y42	Z42	X43	Y43	Z43	X44	Y44	Z44	X45	Y45	Z45	X46	Y46	Z46	X47	Y47	Z47	X48	Y48	Z48	X49	Y49	Z49	X50	Y50	Z50	X51	Y51	Z51	X52	Y52	Z52	X53	Y53	Z53	X54	Y54	Z54	X55	Y55	Z55	X56	Y56	Z56	

1	0	-1344.965698242188	1034.208740234375	94.37468719482422	-1365.416625976562	1023.578491210938	-80.35923767089844	-1353.145141601562	1085.333862304688	-0.6863307356834412	-1106.497314453125	1292.257202148438	-11.77914237976074	-1373.589721679688	1219.437133789062	-6.166841506958008	-1321.751953125	1487.526611328125	-12.14414215087891	-1139.699829101562	1406.08349609375	-13.39818096160889	-1378.347534179688	1347.73291015625	65.67821502685547	-1343.469482421875	1448.8544921875	-114.6347198486328	-1239.973510742188	1455.729614257812	-187.9300079345703	-1250.018310546875	1326.07470703125	-264.0414123535156	-1215.609375	1111.886474609375	-278.2409362792969	-1280.424682617188	1095.2705078125	-194.5432586669922	-1110.228759765625	881.3491821289062	-206.9296875	-1165.235961914062	864.2100219726562	-266.6031494140625	-1187.925415039062	1004.44189453125	-282.1805725097656	-1083.341186523438	701.7796630859375	-177.9769897460938	-1124.573364257812	786.7776489257812	-259.2630920410156	-1079.00048828125	803.0673828125	-207.5127563476562	-1254.461547851562	1453.058471679688	163.9172515869141	-1258.943725585938	1380.98388671875	228.6543273925781	-1267.322265625	1110.84228515625	246.0912475585938	-1257.237670898438	1094.225341796875	145.8585205078125	-1117.513305664062	868.8667602539062	190.9078063964844	-1183.44091796875	848.531982421875	245.2137451171875	-1249.883178710938	1033.1435546875	248.1595153808594	-1108.924072265625	685.6942138671875	164.6964874267578	-1139.565795898438	762.4223022460938	244.7760620117188	-1302.529174804688	1652.008056640625	54.97250747680664	-1119.471069335938	1715.307006835938	-55.12871932983398	-1139.550537109375	1705.1533203125	68.54961395263672	-1290.009033203125	1669.432006835938	-81.01389312744141	-1263.47509765625	962.7975463867188	-174.6181030273438	-1270.687377929688	964.6439819335938	168.0076599121094	-1148.108276367188	985.92626953125	137.4669494628906	-1148.859741210938	977.8407592773438	-130.1016540527344	-1163.437866210938	503.8201599121094	-135.2280578613281	-1205.768432617188	642.346435546875	-167.5039978027344	-1305.356689453125	53.04275512695312	-150.7506256103516	-1240.918090820312	265.0199890136719	-155.7251434326172	-1099.361206054688	46.95949172973633	-161.4774627685547	-1144.10693359375	46.62888336181641	-103.5097808837891	-1206.533447265625	44.08530807495117	-196.4105377197266	-1351.0654296875	50.03728103637695	-69.92398071289062	-1179.29833984375	522.37451171875	134.7259826660156	-1181.392333984375	793.24853515625	168.8236083984375	-1274.440063476562	46.33501815795898	131.2201843261719	-1199.171997070312	398.6485595703125	139.4462738037109	-1060.07373046875	43.35123062133789	80.14791870117188	-1124.779174804688	47.12200546264648	44.08663558959961	-1149.326416015625	49.64731597900391	139.6673431396484	-1324.487426757812	47.24580383300781	78.58260345458984	-1085.709228515625	770.8154907226562	189.0045471191406	nan	nan	nan	nan	nan	nan	nan	nan	nan	
2	0.01	-1344.94189453125	1034.246948242188	94.18062591552734	-1365.262817382812	1023.601928710938	-80.53505706787109	-1353.041015625	1085.345092773438	-0.8691465258598328	-1106.431030273438	1292.252075195312	-11.81383800506592	-1373.4736328125	1219.443237304688	-6.321590423583984	-1321.644653320312	1487.557495117188	-12.25256824493408	-1139.614868164062	1406.0859375	-13.45162773132324	-1378.323608398438	1347.719482421875	65.52652740478516	-1343.345581054688	1448.901977539062	-114.721809387207	-1239.850463867188	1455.7724609375	-188.0148773193359	-1250.007080078125	1326.099609375	-264.1088562011719	-1215.98193359375	1111.802612304688	-278.06103515625	-1280.906005859375	1095.413818359375	-194.4236297607422	-1111.401245117188	880.998046875	-206.3696899414062	-1166.374877929688	864.0061645507812	-266.2584838867188	-1188.489501953125	1004.264343261719	-281.8642883300781	-1085.259887695312	701.1433715820312	-177.3485107421875	-1125.94873046875	786.41943359375	-258.7515563964844	-1080.44091796875	802.5199584960938	-206.8969879150391	-1254.431518554688	1453.023193359375	163.856201171875	-1259.001708984375	1380.942626953125	228.5584411621094	-1267.679931640625	1110.848022460938	245.9315338134766	-1257.287475585938	1094.177124023438	145.806884765625	-1118.259765625	868.5244140625	191.2093658447266	-1184.317993164062	848.4259643554688	245.4524841308594	-1250.37890625	1033.177856445312	248.0563201904297	-1110.037841796875	685.243896484375	165.2003021240234	-1140.622802734375	762.1790161132812	245.1648406982422	-1302.349487304688	1652.047607421875	54.96687316894531	-1119.31689453125	1715.277587890625	-55.05134201049805	-1139.455932617188	1705.073486328125	68.57726287841797	-1289.883666992188	1669.48095703125	-81.04868316650391	-1263.430297851562	962.8186645507812	-174.8221893310547	-1270.702758789062	964.6798095703125	167.8541717529297	-1148.080444335938	985.9315185546875	137.3878784179688	-1148.756225585938	977.8521728515625	-130.1636352539062	-1163.377807617188	503.7904052734375	-135.2698211669922	-1205.671997070312	642.3407592773438	-167.5913391113281	-1305.356811523438	53.04257583618164	-150.7510223388672	-1240.888549804688	265.0027770996094	-155.7492980957031	-1099.358520507812	46.95708084106445	-161.4755096435547	-1144.10546875	46.63139343261719	-103.5098724365234	-1206.536010742188	44.08064651489258	-196.4172973632812	-1351.068725585938	50.0457878112793	-69.93836975097656	-1179.354125976562	522.38134765625	134.713623046875	-1181.451049804688	793.2930908203125	168.7447357177734	-1274.454345703125	46.3426513671875	131.2183380126953	-1199.227783203125	398.6593933105469	139.4167785644531	-1060.082641601562	43.35479354858398	80.14629364013672	-1124.783935546875	47.13232040405273	44.09495544433594	-1149.345092773438	49.61151504516602	139.6892547607422	-1324.490234375	47.24853897094727	78.58058166503906	-1086.921264648438	770.1596069335938	189.3315734863281	nan	nan	nan	nan	nan	nan	nan	nan	nan	
3	0.02	-1344.911010742188	1034.287963867188	93.93846893310547	-1365.075805664062	1023.62548828125	-80.75935363769531	-1352.921508789062	1085.360107421875	-1.101158618927002	-1106.34619140625	1292.241333007812	-11.85914039611816	-1373.326293945312	1219.453735351562	-6.514348030090332	-1321.512939453125	1487.595092773438	-12.38020706176758	-1139.501098632812	1406.086669921875	-13.51984691619873	-1378.288452148438	1347.704345703125	65.33493041992188	-1343.191040039062	1448.961791992188	-114.8326797485352	-1239.686401367188	1455.822875976562	-188.1200103759766	-1249.994995117188	1326.126708984375	-264.1942749023438	-1216.448120117188	1111.695922851562	-277.8413391113281	-1281.519653320312	1095.593017578125	-194.2844848632812	-1112.86328125	880.562255859375	-205.6793060302734	-1167.790893554688	863.752685546875	-265.8286743164062	-1189.210571289062	1004.044250488281	-281.478759765625	-1087.730224609375	700.3007202148438	-176.5942077636719	-1127.680419921875	785.9722290039062	-258.126953125	-1082.267456054688	801.8423461914062	-206.1222991943359	-1254.389526367188	1452.975219726562	163.7781524658203	-1259.070190429688	1380.88720703125	228.4347686767578	-1268.104125976562	1110.851684570312	245.7460327148438	-1257.353271484375	1094.108154296875	145.7411956787109	-1119.203247070312	868.0938110351562	191.5914611816406	-1185.411865234375	848.2916259765625	245.7602996826172	-1250.975708007812	1033.216796875	247.9444427490234	-1111.484497070312	684.6956176757812	165.8320465087891	-1141.944213867188	761.8760986328125	245.6639862060547	-1302.106689453125	1652.099731445312	54.97411346435547	-1119.113403320312	1715.235473632812	-54.95770645141602	-1139.310302734375	1704.97509765625	68.62158966064453	-1289.719116210938	1669.538818359375	-81.09827423095703	-1263.353637695312	962.8414916992188	-175.0634613037109	-1270.716430664062	964.7200317382812	167.6669769287109	-1148.05322265625	985.9343872070312	137.2924652099609	-1148.6201171875	977.8652954101562	-130.2366333007812	-1163.302856445312	503.7549743652344	-135.3186340332031	-1205.547119140625	642.3319091796875	-167.6957092285156	-1305.356201171875	53.04262161254883	-150.7521820068359	-1240.854248046875	264.9811401367188	-155.7807159423828	-1099.355712890625	46.95434951782227	-161.4731597900391	-1144.103881835938	46.63360977172852	-103.5092849731445	-1206.536376953125	44.07330322265625	-196.420654296875	-1351.073120117188	50.05680084228516	-69.95355224609375	-1179.416015625	522.3909301757812	134.694091796875	-1181.513549804688	793.3402099609375	168.6325531005859	-1274.46728515625	46.34941482543945	131.2174377441406	-1199.28857421875	398.6720581054688	139.3711853027344	-1060.092407226562	43.35820770263672	80.14452362060547	-1124.788696289062	47.14144134521484	44.10292434692383	-1149.358154296875	49.58508682250977	139.7076721191406	-1324.495239257812	47.25349807739258	78.57678985595703	-1088.40771484375	769.3438720703125	189.7198638916016	nan	nan	nan	nan	nan	nan	nan	nan	nan	
4	0.03	-1344.873291015625	1034.326293945312	93.66049957275391	-1364.866943359375	1023.646118164062	-81.02346801757812	-1352.795654296875	1085.378662109375	-1.373051643371582	-1106.244873046875	1292.2236328125	-11.91406059265137	-1373.155517578125	1219.469360351562	-6.736839771270752	-1321.36279296875	1487.636108398438	-12.51973438262939	-1139.360473632812	1406.084228515625	-13.60023975372314	-1378.240478515625	1347.689453125	65.11074066162109	-1343.011840820312	1449.031372070312	-114.9635543823242	-1239.483764648438	1455.876708984375	-188.24072265625	-1249.983520507812	1326.15283203125	-264.2945251464844	-1216.989135742188	1111.569580078125	-277.5948486328125	-1282.231567382812	1095.798583984375	-194.1309814453125	-1114.552734375	880.06005859375	-204.8952789306641	-1169.41552734375	863.4591064453125	-265.3336181640625	-1190.0634765625	1003.791625976562	-281.0458984375	-1090.6708984375	699.27685546875	-175.7602081298828	-1129.697631835938	785.4559936523438	-257.4241027832031	-1084.414672851562	801.0706787109375	-205.2251586914062	-1254.334594726562	1452.914794921875	163.6855621337891	-1259.14306640625	1380.818237304688	228.2873229980469	-1268.567260742188	1110.851196289062	245.5484466552734	-1257.4404296875	1094.01953125	145.6627655029297	-1120.306274414062	867.5917358398438	192.0395202636719	-1186.675537109375	848.1346435546875	246.1264190673828	-1251.638916015625	1033.257080078125	247.834228515625	-1113.215209960938	684.0809936523438	166.5717468261719	-1143.474975585938	761.5288696289062	246.2570953369141	-1301.806640625	1652.163208007812	54.99909973144531	-1118.861938476562	1715.179443359375	-54.85397720336914	-1139.106201171875	1704.862548828125	68.68480682373047	-1289.516967773438	1669.602905273438	-81.16225433349609	-1263.236572265625	962.86279296875	-175.3240966796875	-1270.724731445312	964.7600708007812	167.4562377929688	-1148.031982421875	985.9325561523438	137.1867828369141	-1148.455078125	977.8782348632812	-130.3164367675781	-1163.216918945312	503.7164611816406	-135.3719024658203	-1205.397827148438	642.319580078125	-167.8100891113281	-1305.355102539062	53.04286956787109	-150.7538146972656	-1240.818237304688	264.9565124511719	-155.8182983398438	-1099.353393554688	46.95158004760742	-161.4706878662109	-1144.1025390625	46.63488006591797	-103.507926940918	-1206.5341796875	44.06259155273438	-196.4190063476562	-1351.078979492188	50.07035064697266	-69.96844482421875	-1179.478271484375	522.4031372070312	134.6648254394531	-1181.5732421875	793.3847045898438	168.4881896972656	-1274.4775390625	46.35480499267578	131.2169799804688	-1199.347900390625	398.6856689453125	139.3073577880859	-1060.101928710938	43.36079788208008	80.14289093017578	-1124.792724609375	47.14752578735352	44.10950469970703	-1149.364379882812	49.56969451904297	139.7204132080078	-1324.503051757812	47.26121139526367	78.57077026367188	-1090.056762695312	768.421875	190.1460723876953	nan	nan	nan	nan	nan	nan	nan	nan	nan	
